<?xml version="1.0" encoding="utf-8"?>
<!-- Generator: Adobe Illustrator 18.0.0, SVG Export Plug-In . SVG Version: 6.00 Build 0)  -->
<!DOCTYPE svg PUBLIC "-//W3C//DTD SVG 1.1//EN" "http://www.w3.org/Graphics/SVG/1.1/DTD/svg11.dtd">
<svg version="1.1" id="Layer_1" xmlns="http://www.w3.org/2000/svg" xmlns:xlink="http://www.w3.org/1999/xlink" x="0px" y="0px"
	 viewBox="0 0 24 24" enable-background="new 0 0 24 24" xml:space="preserve">
<g>
	<ellipse transform="matrix(0.9188 0.3948 -0.3948 0.9188 4.1676 -5.1217)" fill="#F8CC8A" cx="14.5" cy="7.6" rx="5" ry="3.6"/>
	<ellipse transform="matrix(0.9188 0.3948 -0.3948 0.9188 4.9623 -6.2069)" fill="#FFFFFF" cx="17.6" cy="9" rx="0.6" ry="1.2"/>
	<polygon fill="#F8CC8A" points="7.4,22.3 16.8,1 17.6,0 17.6,1.8 8.8,23.1 7.4,24 	"/>
	<g>
		<defs>
			<polygon id="SVGID_1_" points="5,15.6 4.4,16.8 14.5,20.7 16.8,16.2 7.4,10.8 5.9,12.6 7.4,15.1 			"/>
		</defs>
		<clipPath id="SVGID_2_">
			<use xlink:href="#SVGID_1_"  overflow="visible"/>
		</clipPath>
		<polygon clip-path="url(#SVGID_2_)" fill="#F8CC8A" points="5,15.6 4.4,16.8 14.5,20.7 16.8,16.2 7.4,10.8 5.9,12.6 7.4,15.1 		
			"/>
		
			<ellipse transform="matrix(0.9188 0.3948 -0.3948 0.9188 7.8477 -3.5402)" clip-path="url(#SVGID_2_)" fill="#FFFFFF" cx="12.5" cy="17.3" rx="0.8" ry="0.9"/>
		
			<ellipse transform="matrix(0.9188 0.3948 -0.3948 0.9188 6.0374 -3.0238)" clip-path="url(#SVGID_2_)" fill="#FFFFFF" cx="10.4" cy="13.2" rx="1" ry="0.9"/>
	</g>
</g>
</svg>
