<?xml version="1.0" encoding="utf-8"?>
<!-- Generator: Adobe Illustrator 18.0.0, SVG Export Plug-In . SVG Version: 6.00 Build 0)  -->
<!DOCTYPE svg PUBLIC "-//W3C//DTD SVG 1.1//EN" "http://www.w3.org/Graphics/SVG/1.1/DTD/svg11.dtd">
<svg version="1.1" id="Layer_1" xmlns="http://www.w3.org/2000/svg" xmlns:xlink="http://www.w3.org/1999/xlink" x="0px" y="0px"
	 viewBox="0 0 24 24" enable-background="new 0 0 24 24" xml:space="preserve">
<g>
	<ellipse fill="#F8CC8A" cx="7.5" cy="11.2" rx="5.1" ry="1.2"/>
	<path fill="#F8CC8A" d="M12.6,12c0,0-3.4,2-10.3,0c0,0,0.1,5.7,2.8,6.9c0,0,2.9-4.3,7.8-4.4V12"/>
	<path fill="#F8CC8A" d="M1.5,12.6c0,0-0.1,0.1-0.2,0.2c-0.1,0.1-0.3,0.3-0.4,0.5c-0.1,0.2-0.3,0.5-0.3,0.8c0,0.1,0,0.1,0,0.2
		c0,0.1,0,0.1,0,0.2c0,0.1,0.1,0.3,0.2,0.4c0,0,0,0.1,0.1,0.1L1,15.2c0.1,0.1,0.1,0.1,0.2,0.2c0.1,0.1,0.2,0.2,0.4,0.4
		c0.1,0.1,0.3,0.2,0.4,0.3c0.1,0.1,0.2,0.2,0.4,0.3c0.1,0.1,0.2,0.2,0.3,0.2c0.1,0.1,0.2,0.1,0.2,0.2C3,16.9,3,17,3,17
		s-0.1,0-0.3-0.1c-0.1,0-0.2,0-0.3-0.1c-0.1,0-0.2-0.1-0.4-0.1c-0.1-0.1-0.3-0.1-0.4-0.2c-0.1-0.1-0.3-0.2-0.5-0.3
		c-0.1-0.1-0.2-0.1-0.2-0.2c-0.1-0.1-0.2-0.1-0.2-0.2c-0.1-0.1-0.1-0.1-0.2-0.2l-0.1-0.1c0,0-0.1-0.1-0.1-0.1
		c-0.1-0.2-0.2-0.4-0.3-0.6c-0.1-0.2-0.1-0.5,0-0.7c0-0.2,0.1-0.4,0.2-0.6c0.1-0.2,0.2-0.3,0.3-0.4c0.1-0.1,0.2-0.2,0.3-0.3
		c0.1-0.1,0.2-0.1,0.3-0.2C1.4,12.6,1.5,12.6,1.5,12.6z"/>
	<path fill="#F8CC8A" d="M11.7,0.1c0,0-0.2,0-0.6,0c-0.4,0-1,0-1.7,0.1C9,0.3,8.6,0.3,8.2,0.5C8,0.5,7.9,0.6,7.7,0.7
		C7.5,0.8,7.3,0.9,7.2,1.1C7.1,1.2,7,1.4,7,1.6c0,0.1,0,0.1,0,0.2l0,0c0,0,0,0,0,0l0,0l0,0l0,0l0,0.1C7,2.1,7,2.2,7.1,2.3
		c0,0.1,0,0.1,0.1,0.2c0,0.1,0,0.1,0.1,0.2l0.1,0.1l0,0.1l0.1,0.1C7.5,3,7.5,3,7.6,3.1c0.1,0.1,0.2,0.2,0.3,0.2C8.2,3.7,8.6,4,9,4.2
		C9.4,4.5,9.8,4.7,10.2,5c0.4,0.3,0.7,0.5,1,0.9c0.1,0.2,0.3,0.4,0.3,0.6c0,0.1,0,0.2,0,0.3c0,0,0,0.1,0,0.1c0,0,0,0.1-0.1,0.1
		c-0.2,0.3-0.5,0.5-0.8,0.7C10.3,7.9,10.1,8,9.9,8C9.7,8.1,9.5,8.1,9.4,8.2c-0.1,0-0.2,0-0.2,0S9.5,8.1,9.8,8
		c0.2-0.1,0.4-0.2,0.7-0.3C10.8,7.5,11,7.3,11.2,7c0,0,0-0.1,0-0.1c0,0,0-0.1,0-0.1l0,0c0,0,0,0,0,0l0-0.1c0,0,0-0.1,0-0.1
		c0-0.2-0.1-0.3-0.3-0.5c-0.3-0.3-0.6-0.5-1-0.8C9.7,4.9,9.3,4.7,8.9,4.5C8.5,4.2,8.1,3.9,7.7,3.6C7.6,3.5,7.5,3.4,7.4,3.3
		C7.3,3.2,7.3,3.1,7.2,3L7.1,3L7.1,2.9L7,2.7c0-0.1-0.1-0.1-0.1-0.2c0-0.1-0.1-0.1-0.1-0.2c0-0.1-0.1-0.3-0.1-0.4l0-0.1l0,0l0,0l0,0
		c0,0,0,0,0,0l0,0c0-0.1,0-0.1,0-0.2c0-0.3,0.1-0.5,0.3-0.7c0.2-0.2,0.4-0.3,0.6-0.4C7.8,0.4,8,0.3,8.2,0.2C8.6,0.1,9,0.1,9.3,0.1
		C10,0,10.6,0,11,0.1c0.2,0,0.4,0,0.5,0C11.6,0.1,11.7,0.1,11.7,0.1z"/>
	<path fill="#F8CC8A" d="M6,8.9c0,0,0.1,0,0.3,0.1c0.2,0.1,0.5,0.2,0.8,0.3c0.2,0,0.4,0.1,0.5,0.1c0.2,0,0.4,0,0.6-0.1
		c0.1,0,0.1-0.1,0.2-0.2c0,0,0,0,0-0.1l0-0.1c0-0.1,0-0.1,0-0.2c0-0.2-0.1-0.4-0.2-0.6C8.3,8,8.1,7.8,8,7.6C7.9,7.4,7.7,7.2,7.6,7
		C7.5,6.8,7.4,6.6,7.3,6.4c0-0.1,0-0.2,0-0.4c0-0.1,0-0.1,0.1-0.2c0,0,0,0,0-0.1l0.1-0.1C7.7,5.6,7.9,5.6,8,5.6c0.1,0,0.3,0,0.4,0
		c0.1,0,0.2,0,0.2,0.1c0.1,0,0.1,0,0.1,0s-0.1,0-0.3,0c-0.1,0-0.2,0-0.4,0c-0.1,0-0.3,0.1-0.4,0.2c0,0,0,0,0,0c0,0,0,0,0,0.1
		c0,0,0,0.1,0,0.1c0,0.1,0,0.2,0,0.3c0.1,0.2,0.2,0.4,0.3,0.6C8,7.1,8.1,7.3,8.2,7.5c0.1,0.2,0.3,0.4,0.4,0.7
		c0.1,0.2,0.2,0.5,0.2,0.8c0,0.1,0,0.2,0,0.2l0,0l0,0l0,0l0,0c0,0,0,0,0,0l0,0c0,0,0,0.1,0,0.1C8.6,9.5,8.5,9.6,8.4,9.6
		c-0.3,0.1-0.5,0.1-0.7,0c-0.2,0-0.4-0.1-0.6-0.2C6.8,9.3,6.5,9.2,6.3,9.1C6.1,8.9,6,8.9,6,8.9z"/>
	<g>
		<path fill="#F8CC8A" d="M6.9,23.4c0.9-0.3,1.9-0.8,3-1.2l-2.7-5c-1,0.8-1.9,1.7-2.5,2.5L6.9,23.4z"/>
		<path fill="#F8CC8A" d="M15.8,20.6c1.2-0.2,2.4-0.3,3.5-0.3l0.7-5.1c-1.1-0.5-2.5-0.8-3.9-0.8L15.8,20.6z"/>
		<path fill="#F8CC8A" d="M20.8,15.6L20,20.3c2-0.1,3.5-0.2,3.9-1.1C24.4,18.4,23.2,16.8,20.8,15.6z"/>
		<path fill="#F8CC8A" d="M15.5,14.4c-1,0-2,0.1-3,0.3c-1.9,0.4-3.4,1.2-4.7,2.1l2.6,5.2c1.1-0.4,2.2-0.7,3.4-1
			c0.6-0.1,1.2-0.3,1.7-0.4V14.4z"/>
		<path fill="#F8CC8A" d="M4.3,20.4c-0.9,1.6-1.1,3-0.5,3.4c0.5,0.4,1.3,0.3,2.4-0.1L4.3,20.4z"/>
	</g>
</g>
</svg>
