<?xml version="1.0" encoding="utf-8"?>
<!-- Generator: Adobe Illustrator 18.0.0, SVG Export Plug-In . SVG Version: 6.00 Build 0)  -->
<!DOCTYPE svg PUBLIC "-//W3C//DTD SVG 1.1//EN" "http://www.w3.org/Graphics/SVG/1.1/DTD/svg11.dtd">
<svg version="1.1" id="Layer_1" xmlns="http://www.w3.org/2000/svg" xmlns:xlink="http://www.w3.org/1999/xlink" x="0px" y="0px"
	 viewBox="0 0 24 24" enable-background="new 0 0 24 24" xml:space="preserve">
<polygon fill="#F8CC8A" points="4.7,15.1 20.2,15.1 18.9,24 6.2,24 "/>
<path fill="#F8CC8A" d="M4.4,14.7l16.2-0.1c0,0,3.9-4.8-1.8-6.2c0,0-0.4-4.6-3.9-3.8c0,0-2.2-4.8-5.4-0.2c0,0-3.2,0.1-3.5,3.9
	C6,8.2,0.2,10,4.4,14.7z"/>
<path fill="#FFFFFF" d="M13.9,7.3L13.7,7c-0.1-0.2,0-0.3,0.1-0.4l2-0.9c0.2-0.1,0.3,0,0.4,0.1l0.2,0.3c0.1,0.2,0,0.3-0.1,0.4l-2,0.9
	C14.1,7.5,14,7.5,13.9,7.3z"/>
<path fill="#FFFFFF" d="M8.7,6.3L8.8,6c0.1-0.2,0.3-0.2,0.4-0.2l2,0.9c0.2,0.1,0.2,0.3,0.2,0.4l-0.2,0.3c-0.1,0.2-0.3,0.2-0.4,0.2
	l-2-0.9C8.7,6.7,8.6,6.5,8.7,6.3z"/>
<path fill="#FFFFFF" d="M12.9,10.8l-0.2-0.3c-0.1-0.2,0-0.3,0.1-0.4l2-0.9c0.2-0.1,0.3,0,0.4,0.1l0.2,0.3c0.1,0.2,0,0.3-0.1,0.4
	l-2,0.9C13.2,11,13,11,12.9,10.8z"/>
<path fill="#FFFFFF" d="M17,9l0.2-0.3c0.1-0.2,0.3-0.2,0.4-0.2l2,0.9c0.2,0.1,0.2,0.3,0.2,0.4l-0.2,0.3c-0.1,0.2-0.3,0.2-0.4,0.2
	l-2-0.9C17,9.4,16.9,9.2,17,9z"/>
<path fill="#FFFFFF" d="M7.9,8.7L8.1,9C8.2,9.1,8.2,9.3,8,9.4l-1.7,1.3c-0.1,0.1-0.3,0.1-0.4-0.1l-0.2-0.3c-0.1-0.1-0.1-0.3,0.1-0.4
	l1.7-1.3C7.6,8.5,7.8,8.6,7.9,8.7z"/>
<path fill="#FFFFFF" d="M11.5,11.1l-0.2,0.3c-0.1,0.1-0.3,0.1-0.4,0L9.2,10C9,9.9,9,9.7,9.1,9.5l0.2-0.3c0.1-0.1,0.3-0.1,0.4,0
	l1.6,1.4C11.6,10.8,11.6,11,11.5,11.1z"/>
<path fill="#F9F9F9" d="M12.8,2.9L13.2,3c0.2,0.1,0.2,0.2,0.2,0.4l-0.8,2c-0.1,0.2-0.2,0.2-0.4,0.2l-0.3-0.1
	c-0.2-0.1-0.2-0.2-0.2-0.4l0.8-2C12.5,2.9,12.7,2.8,12.8,2.9z"/>
<path fill="#F8CC8A" d="M16.4,6.9L18.8,2c0,0-2-1.3-0.9-1.5s1.6,0.3,1.6,0.3s0.5-1.5,0.9-0.2l-0.1,0.6c0,0,1.3,0.2,0.9,0.9
	c-0.5,0.6-1.5,0.3-1.5,0.3L16.9,8"/>
</svg>
