<?xml version="1.0" encoding="utf-8"?>
<!-- Generator: Adobe Illustrator 18.0.0, SVG Export Plug-In . SVG Version: 6.00 Build 0)  -->
<!DOCTYPE svg PUBLIC "-//W3C//DTD SVG 1.1//EN" "http://www.w3.org/Graphics/SVG/1.1/DTD/svg11.dtd">
<svg version="1.1" id="Layer_1" xmlns="http://www.w3.org/2000/svg" xmlns:xlink="http://www.w3.org/1999/xlink" x="0px" y="0px"
	 viewBox="0 0 24 24" enable-background="new 0 0 24 24" xml:space="preserve">
<ellipse fill="#F8CC8A" cx="12" cy="12" rx="12" ry="12"/>
<g>
	<path fill="#F8CC8A" d="M21.4,12c0,5.2-4.2,9.4-9.4,9.4S2.6,17.2,2.6,12S6.8,2.6,12,2.6S21.4,6.8,21.4,12z"/>
	<path fill="#FFFFFF" d="M12,21.9c-5.5,0-9.9-4.4-9.9-9.9S6.5,2.1,12,2.1s9.9,4.4,9.9,9.9S17.5,21.9,12,21.9z M12,3.1
		c-4.9,0-9,4-9,8.9c0,4.9,4,8.9,9,8.9s9-4,9-8.9C21,7.1,16.9,3.1,12,3.1z"/>
</g>
<path fill="#FFFFFF" d="M15.4,4.6c0,0-3-0.1-1.9,8l0.6,0.3l-0.3,5.9c0,0,0.9,1.3,1.6,0L15.4,4.6z"/>
<g>
	<path fill="#FFFFFF" d="M9.4,9.4l-0.3,9.4c0,0,0.3,0.8,0.8,0.6l0.1-14.5l0-0.1c0,0-1.1-0.8-0.6,3.3c0,0-1.1,0.3-0.4-3.2
		c0,0-0.2-0.7-0.5,0C8.2,5.6,6.8,9,9.4,9.4z"/>
	<path fill="#FFFFFF" d="M10.4,9.4l0.3,9.4c0,0-0.4,0.8-0.9,0.6l0-14.5l0-0.1c0,0,1.1-0.8,0.6,3.3c0,0,1.1,0.3,0.4-3.2
		c0,0,0.2-0.7,0.5,0C11.6,5.6,13,9,10.4,9.4z"/>
</g>
</svg>
