<?xml version="1.0" encoding="utf-8"?>
<!-- Generator: Adobe Illustrator 18.0.0, SVG Export Plug-In . SVG Version: 6.00 Build 0)  -->
<!DOCTYPE svg PUBLIC "-//W3C//DTD SVG 1.1//EN" "http://www.w3.org/Graphics/SVG/1.1/DTD/svg11.dtd">
<svg version="1.1" id="Layer_1" xmlns="http://www.w3.org/2000/svg" xmlns:xlink="http://www.w3.org/1999/xlink" x="0px" y="0px"
	 viewBox="0 0 827 14.9" enable-background="new 0 0 827 14.9" xml:space="preserve">
<line fill="none" stroke="#F8CC8A" stroke-miterlimit="10" x1="1309.5" y1="30.2" x2="1666.5" y2="30.2"/>
<line fill="none" stroke="#F8CC8A" stroke-miterlimit="10" x1="1779.5" y1="30.2" x2="2136.5" y2="30.2"/>
<ellipse fill="#F8CC8A" cx="1683.9" cy="31.2" rx="8.3" ry="7.4"/>
<ellipse fill="#F8CC8A" cx="1711.7" cy="31.2" rx="8.3" ry="7.4"/>
<ellipse fill="#F8CC8A" cx="1738.4" cy="31.2" rx="8.3" ry="7.4"/>
<ellipse fill="#F8CC8A" cx="1763.2" cy="31.2" rx="8.3" ry="7.4"/>
<line fill="none" stroke="#F8CC8A" stroke-miterlimit="10" x1="1309.5" y1="30.2" x2="1666.5" y2="30.2"/>
<line fill="none" stroke="#F8CC8A" stroke-miterlimit="10" x1="1779.5" y1="30.2" x2="2136.5" y2="30.2"/>
<ellipse fill="#F8CC8A" cx="1683.9" cy="31.2" rx="8.3" ry="7.4"/>
<ellipse fill="#F8CC8A" cx="1711.7" cy="31.2" rx="8.3" ry="7.4"/>
<ellipse fill="#F8CC8A" cx="1738.4" cy="31.2" rx="8.3" ry="7.4"/>
<ellipse fill="#F8CC8A" cx="1763.2" cy="31.2" rx="8.3" ry="7.4"/>
<line fill="none" stroke="#F8CC8A" stroke-miterlimit="10" x1="-0.5" y1="6.2" x2="356.5" y2="6.2"/>
<line fill="none" stroke="#F8CC8A" stroke-miterlimit="10" x1="469.5" y1="6.2" x2="826.5" y2="6.2"/>
<ellipse fill="#F8CC8A" cx="373.9" cy="7.2" rx="8.3" ry="7.4"/>
<ellipse fill="#F8CC8A" cx="401.7" cy="7.2" rx="8.3" ry="7.4"/>
<ellipse fill="#F8CC8A" cx="428.4" cy="7.2" rx="8.3" ry="7.4"/>
<ellipse fill="#F8CC8A" cx="453.2" cy="7.2" rx="8.3" ry="7.4"/>
</svg>
