<?xml version="1.0" encoding="utf-8"?>
<!-- Generator: Adobe Illustrator 18.0.0, SVG Export Plug-In . SVG Version: 6.00 Build 0)  -->
<!DOCTYPE svg PUBLIC "-//W3C//DTD SVG 1.1//EN" "http://www.w3.org/Graphics/SVG/1.1/DTD/svg11.dtd">
<svg version="1.1" id="Layer_1" xmlns="http://www.w3.org/2000/svg" xmlns:xlink="http://www.w3.org/1999/xlink" x="0px" y="0px"
	 viewBox="0 0 827.5 44.9" enable-background="new 0 0 827.5 44.9" xml:space="preserve">
<line fill="none" stroke="#F8CC8A" stroke-miterlimit="10" x1="1310.5" y1="72.2" x2="1480.1" y2="72.2"/>
<line fill="none" stroke="#F8CC8A" stroke-miterlimit="10" x1="1568.1" y1="72.2" x2="2138" y2="72.2"/>
<path fill="#F8CC8A" d="M1568.3,71.2c0,0.8,0.1,1.6,0.1,2.3c0,22.9-19.6,41.6-43.7,41.6s-43.7-18.7-43.7-41.6c0-0.8,0-1.6,0.1-2.3
	h-1c0,0.8-0.1,1.6-0.1,2.3c0,23.5,20,42.6,44.7,42.6c24.6,0,44.7-19.1,44.7-42.6c0-0.8,0-1.6-0.1-2.3H1568.3z"/>
<line fill="none" stroke="#F8CC8A" stroke-miterlimit="10" x1="-0.5" y1="1.2" x2="169.1" y2="1.2"/>
<line fill="none" stroke="#F8CC8A" stroke-miterlimit="10" x1="257.1" y1="1.2" x2="827" y2="1.2"/>
<path fill="#F8CC8A" d="M257.3,0.2c0,0.8,0.1,1.6,0.1,2.3c0,22.9-19.6,41.6-43.7,41.6s-43.7-18.7-43.7-41.6c0-0.8,0-1.6,0.1-2.3h-1
	c0,0.8-0.1,1.6-0.1,2.3c0,23.5,20,42.6,44.7,42.6c24.6,0,44.7-19.1,44.7-42.6c0-0.8,0-1.6-0.1-2.3H257.3z"/>
</svg>
