<?xml version="1.0" encoding="utf-8"?>
<!-- Generator: Adobe Illustrator 18.0.0, SVG Export Plug-In . SVG Version: 6.00 Build 0)  -->
<!DOCTYPE svg PUBLIC "-//W3C//DTD SVG 1.1//EN" "http://www.w3.org/Graphics/SVG/1.1/DTD/svg11.dtd">
<svg version="1.1" id="Layer_1" xmlns="http://www.w3.org/2000/svg" xmlns:xlink="http://www.w3.org/1999/xlink" x="0px" y="0px"
	 viewBox="0 0 24 24" enable-background="new 0 0 24 24" xml:space="preserve">
<path fill="#F8CC8A" d="M10.3,11.6H1.4c-0.8,0-1.4-0.6-1.4-1.4l0-8.7C0,0.6,0.6,0,1.4,0l8.9,0c0.8,0,1.4,0.6,1.4,1.4v8.7
	C11.7,10.9,11.1,11.6,10.3,11.6z"/>
<path fill="#F8CC8A" d="M22.6,11.6h-8.9c-0.8,0-1.4-0.6-1.4-1.4V1.4c0-0.8,0.6-1.4,1.4-1.4l8.9,0C23.4,0,24,0.6,24,1.4v8.7
	C24,10.9,23.4,11.6,22.6,11.6z"/>
<path fill="#F8CC8A" d="M10.3,24H1.4C0.6,24,0,23.4,0,22.6l0-8.7c0-0.8,0.6-1.4,1.4-1.4h8.9c0.8,0,1.4,0.6,1.4,1.4v8.7
	C11.7,23.4,11.1,24,10.3,24z"/>
<path fill="#F8CC8A" d="M22.6,24h-8.9c-0.8,0-1.4-0.6-1.4-1.4v-8.7c0-0.8,0.6-1.4,1.4-1.4h8.9c0.8,0,1.4,0.6,1.4,1.4v8.7
	C24,23.4,23.4,24,22.6,24z"/>
</svg>
