<?xml version="1.0" encoding="utf-8"?>
<!-- Generator: Adobe Illustrator 18.0.0, SVG Export Plug-In . SVG Version: 6.00 Build 0)  -->
<!DOCTYPE svg PUBLIC "-//W3C//DTD SVG 1.1//EN" "http://www.w3.org/Graphics/SVG/1.1/DTD/svg11.dtd">
<svg version="1.1" id="Layer_1" xmlns="http://www.w3.org/2000/svg" xmlns:xlink="http://www.w3.org/1999/xlink" x="0px" y="0px"
	 viewBox="0 0 24 24" enable-background="new 0 0 24 24" xml:space="preserve">
<path fill="#F8CC8A" d="M0,14.1L24,14.3c0,0-2.7,10.5-11.6,9.7C12.4,24,2.4,25.2,0,14.1z"/>
<path fill="#F8CC8A" d="M2.4,14.6c0,0-0.8-1.1,0.7-1.3c0,0,0.4-2.6,2.7-0.6c0,0,0.5-0.8,0.9-0.8c0,0,0.2,1.7,2.1,2.4h0.1"/>
<path fill="#F8CC8A" d="M10.2,14.5c0,0,1.7-1.3,1.6-1.5c-0.1-0.2,1.1,0.5,1.1,0.5s1.2-2.3,2.6-0.2s-0.8,2.9-0.8,2.9"/>
<path fill="#F8CC8A" d="M16.4,14.3c0,0,0.2-1.4-1.3-2.5c0,0,0.6-0.8,1.1-0.5c0,0-0.7-2.8,1.7-1.9c0,0,0.5-1.1,1.3-0.2
	c0,0,0.8-1.1,1.5,0.5c0,0,0.8,0.8,0.5,1.4c0,0,1.9-0.8,1.2,1c0,0,2,1.6-1.4,2.3c-3.3,0.6-3.9,2.8-3.9,2.8"/>
<g>
	<defs>
		<path id="SVGID_1_" d="M9.6,13c0,0.1,5.7-3.4,5.7-3.4s-2.3-3.1-4.9-1C10.5,8.6,8.2,10.2,9.6,13z"/>
	</defs>
	<clipPath id="SVGID_2_">
		<use xlink:href="#SVGID_1_"  overflow="visible"/>
	</clipPath>
	<path clip-path="url(#SVGID_2_)" fill="#F8CC8A" d="M9.6,13c0,0.1,5.7-3.4,5.7-3.4s-2.3-3.1-4.9-1C10.5,8.6,8.2,10.2,9.6,13z"/>
	<path clip-path="url(#SVGID_2_)" fill="#FFFFFF" d="M10,12.8c0,0.1,5.1-2.9,5.1-2.9S13,7.2,10.7,9C10.7,9,8.8,10.3,10,12.8z"/>
	<path clip-path="url(#SVGID_2_)" fill="#F8CC8A" d="M10.3,12.6c0,0,4.3-2.5,4.3-2.5s-1.8-2.3-3.7-0.7C10.9,9.4,9.2,10.5,10.3,12.6z
		"/>
	<polyline clip-path="url(#SVGID_2_)" fill="#FFFFFF" points="9.9,10.5 12.5,11.5 13.8,9.1 13,8.8 12.3,10.7 10.5,9.8 	"/>
</g>
<g>
	<defs>
		<path id="SVGID_3_" d="M4.1,5.4c0,0,5.1,2.9,5.1,2.9s1.4-3.1-1.4-4.2C7.8,4.1,5.7,3,4.1,5.4z"/>
	</defs>
	<clipPath id="SVGID_4_">
		<use xlink:href="#SVGID_3_"  overflow="visible"/>
	</clipPath>
	<path clip-path="url(#SVGID_4_)" fill="#F8CC8A" d="M4.1,5.4c0,0,5.1,2.9,5.1,2.9s1.4-3.1-1.4-4.2C7.8,4.1,5.7,3,4.1,5.4z"/>
	<path clip-path="url(#SVGID_4_)" fill="#FFFFFF" d="M4.4,5.5c0,0,4.5,2.7,4.5,2.7s1.2-2.7-1.2-3.7C7.7,4.5,5.8,3.5,4.4,5.5z"/>
	<path clip-path="url(#SVGID_4_)" fill="#F8CC8A" d="M4.7,5.7c0,0,3.9,2.3,3.9,2.3s1-2.4-1-3.2C7.5,4.7,5.9,3.9,4.7,5.7z"/>
	<polyline clip-path="url(#SVGID_4_)" fill="#FFFFFF" points="6.2,4.5 6.5,6.9 8.9,6.8 8.8,6.1 7,6.4 7,4.6 	"/>
</g>
<g>
	<defs>
		<path id="SVGID_5_" d="M16.3,4c0,0-3.6-3.8-3.6-3.8s-2,2.3,0.1,4C12.7,4.1,14.3,5.6,16.3,4z"/>
	</defs>
	<clipPath id="SVGID_6_">
		<use xlink:href="#SVGID_5_"  overflow="visible"/>
	</clipPath>
	<path clip-path="url(#SVGID_6_)" fill="#F8CC8A" d="M16.3,4c0,0-3.6-3.8-3.6-3.8s-2,2.3,0.1,4C12.7,4.1,14.3,5.6,16.3,4z"/>
	<path clip-path="url(#SVGID_6_)" fill="#FFFFFF" d="M16,3.8c0,0-3.1-3.4-3.1-3.4s-1.7,2,0.1,3.5C13,3.8,14.3,5.1,16,3.8z"/>
	<path clip-path="url(#SVGID_6_)" fill="#F8CC8A" d="M15.9,3.6c0,0-2.7-2.9-2.7-2.9s-1.5,1.8,0.1,3C13.2,3.6,14.4,4.7,15.9,3.6z"/>
	<polyline clip-path="url(#SVGID_6_)" fill="#FFFFFF" points="14.2,4.2 14.6,2 12.5,1.5 12.4,2.1 14,2.3 13.6,3.9 	"/>
</g>
</svg>
