<?xml version="1.0" encoding="utf-8"?>
<!-- Generator: Adobe Illustrator 18.0.0, SVG Export Plug-In . SVG Version: 6.00 Build 0)  -->
<!DOCTYPE svg PUBLIC "-//W3C//DTD SVG 1.1//EN" "http://www.w3.org/Graphics/SVG/1.1/DTD/svg11.dtd">
<svg version="1.1" id="Layer_1" xmlns="http://www.w3.org/2000/svg" xmlns:xlink="http://www.w3.org/1999/xlink" x="0px" y="0px"
	 viewBox="0 0 24 24" enable-background="new 0 0 24 24" xml:space="preserve">
<path fill="#F8CC8A" d="M22.6,24H1.4C0.6,24,0,23.4,0,22.6V1.4C0,0.6,0.6,0,1.4,0h21.3C23.4,0,24,0.6,24,1.4v21.3
	C24,23.4,23.4,24,22.6,24z"/>
<path fill="#FFFFFF" d="M21.5,6.5h-20c-0.1,0-0.2-0.1-0.2-0.2l0,0C1.3,6.1,1.4,6,1.5,6h20c0.1,0,0.2,0.1,0.2,0.2l0,0
	C21.7,6.3,21.6,6.5,21.5,6.5z"/>
<ellipse fill="#FFFFFF" cx="4.8" cy="6.2" rx="2.3" ry="2.1"/>
<ellipse fill="#FFFFFF" cx="17.9" cy="12.1" rx="2.3" ry="2.1"/>
<ellipse fill="#FFFFFF" cx="10.8" cy="18.9" rx="2.3" ry="2.1"/>
<path fill="#FFFFFF" d="M21.5,12.3h-20c-0.1,0-0.2-0.1-0.2-0.2l0,0c0-0.1,0.1-0.2,0.2-0.2h20c0.1,0,0.2,0.1,0.2,0.2l0,0
	C21.7,12.2,21.6,12.3,21.5,12.3z"/>
<path fill="#FFFFFF" d="M21.5,19.1h-20c-0.1,0-0.2-0.1-0.2-0.2l0,0c0-0.1,0.1-0.2,0.2-0.2h20c0.1,0,0.2,0.1,0.2,0.2l0,0
	C21.7,19,21.6,19.1,21.5,19.1z"/>
</svg>
