<?xml version="1.0" encoding="utf-8"?>
<!-- Generator: Adobe Illustrator 18.0.0, SVG Export Plug-In . SVG Version: 6.00 Build 0)  -->
<!DOCTYPE svg PUBLIC "-//W3C//DTD SVG 1.1//EN" "http://www.w3.org/Graphics/SVG/1.1/DTD/svg11.dtd">
<svg version="1.1" id="Layer_1" xmlns="http://www.w3.org/2000/svg" xmlns:xlink="http://www.w3.org/1999/xlink" x="0px" y="0px"
	 viewBox="0 0 24 24" enable-background="new 0 0 24 24" xml:space="preserve">
<g>
	<path fill="#F8CC8A" d="M22.2,24H1.8c-1,0-1.8-0.8-1.8-1.8V1.8C0,0.8,0.8,0,1.8,0h20.4c1,0,1.8,0.8,1.8,1.8v20.4
		C24,23.2,23.2,24,22.2,24z M1.8,1C1.3,1,1,1.3,1,1.8v20.4C1,22.7,1.3,23,1.8,23h20.4c0.5,0,0.8-0.4,0.8-0.8V1.8
		C23,1.3,22.7,1,22.2,1H1.8z"/>
</g>
<polygon fill="#F8CC8A" points="10.7,6.4 15.3,1.8 16.1,8.3 21.9,11.2 16.1,14 15.1,20.4 10.6,15.7 4.2,16.8 7.3,11.1 4.3,5.3 "/>
</svg>
