<?xml version="1.0" encoding="utf-8"?>
<!-- Generator: Adobe Illustrator 18.0.0, SVG Export Plug-In . SVG Version: 6.00 Build 0)  -->
<!DOCTYPE svg PUBLIC "-//W3C//DTD SVG 1.1//EN" "http://www.w3.org/Graphics/SVG/1.1/DTD/svg11.dtd">
<svg version="1.1" id="Layer_1" xmlns="http://www.w3.org/2000/svg" xmlns:xlink="http://www.w3.org/1999/xlink" x="0px" y="0px"
	 viewBox="0 0 24 24" enable-background="new 0 0 24 24" xml:space="preserve">
<g>
	<g>
		<path fill="#F9CB8B" d="M19.2,1.8c-4.3-3-10.1-2.2-13,1.9s-1.6,9.8,2.7,12.8s10.1,2.2,13-1.9S23.5,4.8,19.2,1.8z M11.1,13.4
			c-2.5-1.7-3.2-5-1.6-7.3S14.5,3.2,17,5c2.5,1.7,3.2,5,1.6,7.3C16.9,14.6,13.6,15.1,11.1,13.4z"/>
	</g>
	<path fill="#F9CB8B" d="M3,23.6L3,23.6c-0.9-0.7-1.2-2-0.5-2.9L7.1,14c0.7-0.9,2-1.2,2.9-0.5l0,0c0.9,0.7,1.2,2,0.5,2.9l-4.6,6.7
		C5.3,24,4,24.2,3,23.6z"/>
</g>
</svg>
