<?xml version="1.0" encoding="utf-8"?>
<!-- Generator: Adobe Illustrator 18.0.0, SVG Export Plug-In . SVG Version: 6.00 Build 0)  -->
<!DOCTYPE svg PUBLIC "-//W3C//DTD SVG 1.1//EN" "http://www.w3.org/Graphics/SVG/1.1/DTD/svg11.dtd">
<svg version="1.1" id="Layer_1" xmlns="http://www.w3.org/2000/svg" xmlns:xlink="http://www.w3.org/1999/xlink" x="0px" y="0px"
	 viewBox="0 0 24 24" enable-background="new 0 0 24 24" xml:space="preserve">
<path fill="#F8CC8A" d="M22.6,9.5l-2-0.2c-0.2-0.5-0.4-1-0.6-1.5l1.3-1.6c0.5-0.6,0.5-1.5-0.1-2.1l-1.3-1.3
	c-0.6-0.6-1.5-0.6-2.1-0.1L16.1,4c-0.5-0.2-0.9-0.4-1.5-0.6l-0.2-2C14.4,0.6,13.7,0,12.9,0h-1.8c-0.8,0-1.5,0.6-1.6,1.4l-0.2,2
	C8.8,3.6,8.3,3.8,7.9,4L6.3,2.8C5.6,2.3,4.7,2.3,4.1,2.9L2.9,4.1C2.3,4.7,2.3,5.6,2.8,6.3L4,7.9C3.8,8.3,3.6,8.8,3.4,9.3l-2,0.2
	C0.6,9.6,0,10.3,0,11.1v1.8c0,0.8,0.6,1.5,1.4,1.6l2,0.2c0.2,0.5,0.4,1,0.6,1.5l-1.3,1.6c-0.5,0.6-0.5,1.5,0.1,2.1l1.3,1.3
	c0.6,0.6,1.5,0.6,2.1,0.1L7.9,20c0.5,0.2,0.9,0.4,1.4,0.6l0.2,2c0.1,0.8,0.8,1.4,1.6,1.4h1.8c0.8,0,1.5-0.6,1.6-1.4l0.2-2
	c0.5-0.2,1-0.4,1.5-0.6l1.6,1.3c0.6,0.5,1.5,0.5,2.1-0.1l1.3-1.3c0.6-0.6,0.6-1.5,0.1-2.1L20,16.1c0.2-0.5,0.4-0.9,0.6-1.5l2-0.2
	c0.8-0.1,1.4-0.8,1.4-1.6v-1.8C24,10.3,23.4,9.6,22.6,9.5z M12,18.5c-3.6,0-6.5-2.9-6.5-6.5c0-3.6,2.9-6.5,6.5-6.5
	c3.6,0,6.5,2.9,6.5,6.5C18.5,15.6,15.6,18.5,12,18.5z"/>
</svg>
