<?xml version="1.0" encoding="utf-8"?>
<!-- Generator: Adobe Illustrator 18.0.0, SVG Export Plug-In . SVG Version: 6.00 Build 0)  -->
<!DOCTYPE svg PUBLIC "-//W3C//DTD SVG 1.1//EN" "http://www.w3.org/Graphics/SVG/1.1/DTD/svg11.dtd">
<svg version="1.1" id="Layer_1" xmlns="http://www.w3.org/2000/svg" xmlns:xlink="http://www.w3.org/1999/xlink" x="0px" y="0px"
	 viewBox="0 0 24 24" enable-background="new 0 0 24 24" xml:space="preserve">
<path fill="#F8CC8A" d="M0,13.2l24,0.2c0,0-2.7,11.5-11.6,10.6C12.4,24,2.3,25.3,0,13.2z"/>
<path fill="#F8CC8A" d="M8.5,4C8.5,4,8.5,4,8.5,4C8.6,4,8.7,4.1,8.8,4.1C8.9,4.2,9,4.3,9.1,4.4c0.1,0.1,0.2,0.2,0.3,0.4
	C9.6,5,9.7,5.2,9.7,5.4c0,0.2,0,0.5,0,0.7c0,0.1,0,0.1,0,0.2c0,0.1,0,0.1-0.1,0.2c0,0.1,0,0.1-0.1,0.2c0,0.1-0.1,0.1-0.1,0.2
	C9.4,7,9.3,7.1,9.3,7.3L9.2,7.4l0,0.1c0,0,0,0.1,0,0.1L9,7.7L8.9,7.9c0,0.1-0.1,0.2-0.1,0.3c0,0.1-0.1,0.2-0.1,0.3
	c0,0.1,0,0.2,0,0.3c0,0.2,0,0.4,0.1,0.6c0,0.2,0.1,0.4,0.2,0.5c0.1,0.2,0.2,0.3,0.2,0.4c0.1,0.1,0.2,0.2,0.2,0.3
	c0.1,0.1,0.1,0.2,0.2,0.2c0,0,0.1,0.1,0.1,0.1s0,0-0.1,0c0,0-0.1-0.1-0.2-0.1c-0.2-0.1-0.4-0.3-0.6-0.7C8.6,9.9,8.5,9.7,8.4,9.5
	C8.3,9.3,8.3,9.1,8.2,8.8c0-0.3,0-0.5,0.1-0.8c0-0.1,0.1-0.3,0.1-0.4l0.1-0.2l0.1-0.2c0,0,0-0.1,0.1-0.1l0.1-0.1L8.8,7
	C8.9,6.9,8.9,6.8,9,6.7c0.1-0.2,0.2-0.4,0.3-0.6c0.1-0.2,0.1-0.4,0.1-0.6c0-0.2,0-0.4-0.1-0.5C9.1,4.8,9.1,4.6,9,4.5
	C8.9,4.4,8.8,4.3,8.8,4.2C8.7,4.1,8.6,4.1,8.5,4C8.5,4,8.5,4,8.5,4z"/>
<path fill="#F8CC8A" d="M13,0.6C13,0.6,13,0.6,13,0.6c0.1,0.1,0.2,0.1,0.3,0.2c0.1,0.1,0.2,0.1,0.3,0.3c0.1,0.1,0.2,0.2,0.3,0.4
	c0.1,0.2,0.2,0.4,0.2,0.6c0,0.2,0,0.5,0,0.7c0,0.1,0,0.1,0,0.2c0,0.1,0,0.1-0.1,0.2c0,0.1,0,0.1-0.1,0.2C14,3.5,14,3.5,14,3.6
	c-0.1,0.1-0.1,0.2-0.2,0.3l-0.1,0.2l0,0.1c0,0,0,0.1,0,0.1l-0.1,0.1l-0.1,0.2c0,0.1-0.1,0.2-0.1,0.3c0,0.1-0.1,0.2-0.1,0.3
	c0,0.1,0,0.2,0,0.3c0,0.2,0,0.4,0.1,0.6c0,0.2,0.1,0.4,0.2,0.5c0.1,0.2,0.2,0.3,0.2,0.4c0.1,0.1,0.2,0.2,0.2,0.3
	c0.1,0.1,0.1,0.2,0.2,0.2c0,0,0.1,0.1,0.1,0.1s0,0-0.1,0c0,0-0.1-0.1-0.2-0.1c-0.2-0.1-0.4-0.3-0.6-0.7c-0.1-0.2-0.2-0.3-0.3-0.6
	c-0.1-0.2-0.2-0.5-0.2-0.7c0-0.3,0-0.5,0.1-0.8c0-0.1,0.1-0.3,0.1-0.4L13,4.1l0.1-0.2c0,0,0-0.1,0.1-0.1l0.1-0.1l0.1-0.2
	c0.1-0.1,0.1-0.2,0.2-0.3c0.1-0.2,0.2-0.4,0.3-0.6c0.1-0.2,0.1-0.4,0.1-0.6c0-0.2,0-0.4-0.1-0.5c-0.1-0.2-0.1-0.3-0.2-0.4
	c-0.1-0.1-0.2-0.2-0.2-0.3C13.2,0.8,13.1,0.7,13,0.6C13,0.7,13,0.6,13,0.6z"/>
<path fill="#F8CC8A" d="M18.8,6C18.8,6,18.9,6,18.8,6C19,6,19,6.1,19.1,6.1c0.1,0.1,0.2,0.1,0.3,0.3c0.1,0.1,0.2,0.2,0.3,0.4
	C19.9,7,20,7.2,20,7.4c0,0.2,0,0.5,0,0.7c0,0.1,0,0.1,0,0.2c0,0.1,0,0.1-0.1,0.2c0,0.1,0,0.1-0.1,0.2c0,0.1-0.1,0.1-0.1,0.2
	c-0.1,0.1-0.1,0.2-0.2,0.3l-0.1,0.2l0,0.1c0,0,0,0.1,0,0.1l-0.1,0.1l-0.1,0.2c0,0.1-0.1,0.2-0.1,0.3c0,0.1-0.1,0.2-0.1,0.3
	c0,0.1,0,0.2,0,0.3c0,0.2,0,0.4,0.1,0.6c0,0.2,0.1,0.4,0.2,0.5c0.1,0.2,0.2,0.3,0.2,0.4c0.1,0.1,0.2,0.2,0.2,0.3
	c0.1,0.1,0.1,0.2,0.2,0.2c0,0,0.1,0.1,0.1,0.1s0,0-0.1,0c0,0-0.1-0.1-0.2-0.1c-0.2-0.1-0.4-0.3-0.6-0.7c-0.1-0.2-0.2-0.3-0.3-0.6
	c-0.1-0.2-0.2-0.5-0.2-0.7c0-0.3,0-0.5,0.1-0.8c0-0.1,0.1-0.3,0.1-0.4l0.1-0.2l0.1-0.2c0,0,0-0.1,0.1-0.1L19,9.1L19.1,9
	c0.1-0.1,0.1-0.2,0.2-0.3c0.1-0.2,0.2-0.4,0.3-0.6c0.1-0.2,0.1-0.4,0.1-0.6c0-0.2,0-0.4-0.1-0.5c-0.1-0.2-0.1-0.3-0.2-0.4
	c-0.1-0.1-0.2-0.2-0.2-0.3C19,6.2,18.9,6.1,18.8,6C18.8,6,18.8,6,18.8,6z"/>
<path fill="#F8CC8A" d="M5.3,13.8c0,0-6.9-6.4-5-7.2s6.1,6.8,6.1,6.8L5.3,13.8z"/>
</svg>
